<?xml version="1.0" standalone="no"?>
<!DOCTYPE svg PUBLIC "-//W3C//DTD SVG 20010904//EN"
 "http://www.w3.org/TR/2001/REC-SVG-20010904/DTD/svg10.dtd">
<svg version="1.0" xmlns="http://www.w3.org/2000/svg"
 width="641.000000pt" height="641.000000pt" viewBox="0 0 641.000000 641.000000"
 preserveAspectRatio="xMidYMid meet">
<metadata>
Created by potrace 1.14, written by Peter Selinger 2001-2017
</metadata>
<g transform="translate(0.000000,641.000000) scale(0.100000,-0.100000)"
fill="#000000" stroke="none">
<path d="M1790 5755 c-186 -52 -416 -213 -666 -467 -149 -151 -179 -184 -255
-285 -244 -322 -283 -573 -98 -623 60 -17 167 7 273 60 44 22 81 38 82 37 1
-1 -20 -31 -47 -67 -275 -362 -434 -723 -416 -945 8 -93 21 -134 60 -192 71
-104 180 -149 341 -140 138 7 247 41 436 135 85 42 159 79 164 81 6 2 -11 -23
-38 -55 -109 -135 -319 -421 -408 -555 -282 -426 -457 -804 -529 -1139 -30
-138 -32 -362 -6 -459 64 -235 218 -394 443 -456 81 -22 272 -30 375 -16 475
68 1104 400 1751 923 53 43 99 78 101 78 2 0 -30 -69 -73 -152 -167 -333 -193
-555 -83 -715 178 -262 644 -158 1206 269 42 32 77 56 77 53 0 -3 -15 -36 -34
-73 -110 -218 -82 -373 71 -398 96 -15 296 72 478 208 137 103 379 338 499
485 270 331 345 590 196 678 -70 41 -219 14 -349 -62 -57 -33 -53 -24 50 117
251 344 384 664 366 880 -26 307 -296 411 -682 263 -49 -19 -141 -61 -202 -94
-62 -32 -116 -59 -119 -59 -3 0 15 26 41 58 26 31 106 136 179 233 412 547
668 1041 757 1459 29 139 32 363 6 460 -63 232 -220 393 -443 455 -81 22 -272
30 -375 16 -475 -68 -1105 -400 -1751 -923 -53 -43 -99 -78 -101 -78 -2 0 30
69 73 153 167 332 193 554 83 714 -118 173 -366 189 -695 44 -126 -56 -325
-176 -472 -284 -64 -48 -116 -85 -116 -82 0 3 15 36 34 73 136 270 50 451
-184 387z"/>
</g>
</svg>
